<?xml version="1.0" encoding="utf-8"?>
<!DOCTYPE svg PUBLIC "-//W3C//DTD SVG 20010904//EN" "http://www.w3.org/TR/2001/REC-SVG-20010904/DTD/svg10.dtd">
<svg xmlns="http://www.w3.org/2000/svg" xml:space="preserve" xmlns:xlink="http://www.w3.org/1999/xlink" width="984" height="984" viewBox="0 0 984 984">
<defs>
<mask id="qrmask"><g fill="#ffffff">
<g transform="translate(240,48) scale(4)"><rect width="6" height="6"/></g>
<g transform="translate(264,48) scale(4)"><rect width="6" height="6"/></g>
<g transform="translate(384,48) scale(4)"><rect width="6" height="6"/></g>
<g transform="translate(480,48) scale(4)"><rect width="6" height="6"/></g>
<g transform="translate(504,48) scale(4)"><rect width="6" height="6"/></g>
<g transform="translate(528,48) scale(4)"><rect width="6" height="6"/></g>
<g transform="translate(576,48) scale(4)"><rect width="6" height="6"/></g>
<g transform="translate(624,48) scale(4)"><rect width="6" height="6"/></g>
<g transform="translate(696,48) scale(4)"><rect width="6" height="6"/></g>
<g transform="translate(720,48) scale(4)"><rect width="6" height="6"/></g>
<g transform="translate(240,72) scale(4)"><rect width="6" height="6"/></g>
<g transform="translate(336,72) scale(4)"><rect width="6" height="6"/></g>
<g transform="translate(384,72) scale(4)"><rect width="6" height="6"/></g>
<g transform="translate(408,72) scale(4)"><rect width="6" height="6"/></g>
<g transform="translate(432,72) scale(4)"><rect width="6" height="6"/></g>
<g transform="translate(456,72) scale(4)"><rect width="6" height="6"/></g>
<g transform="translate(552,72) scale(4)"><rect width="6" height="6"/></g>
<g transform="translate(576,72) scale(4)"><rect width="6" height="6"/></g>
<g transform="translate(600,72) scale(4)"><rect width="6" height="6"/></g>
<g transform="translate(696,72) scale(4)"><rect width="6" height="6"/></g>
<g transform="translate(720,72) scale(4)"><rect width="6" height="6"/></g>
<g transform="translate(240,96) scale(4)"><rect width="6" height="6"/></g>
<g transform="translate(288,96) scale(4)"><rect width="6" height="6"/></g>
<g transform="translate(312,96) scale(4)"><rect width="6" height="6"/></g>
<g transform="translate(360,96) scale(4)"><rect width="6" height="6"/></g>
<g transform="translate(504,96) scale(4)"><rect width="6" height="6"/></g>
<g transform="translate(576,96) scale(4)"><rect width="6" height="6"/></g>
<g transform="translate(672,96) scale(4)"><rect width="6" height="6"/></g>
<g transform="translate(720,96) scale(4)"><rect width="6" height="6"/></g>
<g transform="translate(264,120) scale(4)"><rect width="6" height="6"/></g>
<g transform="translate(288,120) scale(4)"><rect width="6" height="6"/></g>
<g transform="translate(312,120) scale(4)"><rect width="6" height="6"/></g>
<g transform="translate(360,120) scale(4)"><rect width="6" height="6"/></g>
<g transform="translate(384,120) scale(4)"><rect width="6" height="6"/></g>
<g transform="translate(408,120) scale(4)"><rect width="6" height="6"/></g>
<g transform="translate(504,120) scale(4)"><rect width="6" height="6"/></g>
<g transform="translate(552,120) scale(4)"><rect width="6" height="6"/></g>
<g transform="translate(576,120) scale(4)"><rect width="6" height="6"/></g>
<g transform="translate(600,120) scale(4)"><rect width="6" height="6"/></g>
<g transform="translate(648,120) scale(4)"><rect width="6" height="6"/></g>
<g transform="translate(672,120) scale(4)"><rect width="6" height="6"/></g>
<g transform="translate(264,144) scale(4)"><rect width="6" height="6"/></g>
<g transform="translate(288,144) scale(4)"><rect width="6" height="6"/></g>
<g transform="translate(312,144) scale(4)"><rect width="6" height="6"/></g>
<g transform="translate(360,144) scale(4)"><rect width="6" height="6"/></g>
<g transform="translate(408,144) scale(4)"><rect width="6" height="6"/></g>
<g transform="translate(456,144) scale(4)"><rect width="6" height="6"/></g>
<g transform="translate(480,144) scale(4)"><rect width="6" height="6"/></g>
<g transform="translate(504,144) scale(4)"><rect width="6" height="6"/></g>
<g transform="translate(552,144) scale(4)"><rect width="6" height="6"/></g>
<g transform="translate(624,144) scale(4)"><rect width="6" height="6"/></g>
<g transform="translate(672,144) scale(4)"><rect width="6" height="6"/></g>
<g transform="translate(240,168) scale(4)"><rect width="6" height="6"/></g>
<g transform="translate(264,168) scale(4)"><rect width="6" height="6"/></g>
<g transform="translate(312,168) scale(4)"><rect width="6" height="6"/></g>
<g transform="translate(336,168) scale(4)"><rect width="6" height="6"/></g>
<g transform="translate(360,168) scale(4)"><rect width="6" height="6"/></g>
<g transform="translate(408,168) scale(4)"><rect width="6" height="6"/></g>
<g transform="translate(432,168) scale(4)"><rect width="6" height="6"/></g>
<g transform="translate(480,168) scale(4)"><rect width="6" height="6"/></g>
<g transform="translate(504,168) scale(4)"><rect width="6" height="6"/></g>
<g transform="translate(696,168) scale(4)"><rect width="6" height="6"/></g>
<g transform="translate(720,168) scale(4)"><rect width="6" height="6"/></g>
<g transform="translate(240,192) scale(4)"><rect width="6" height="6"/></g>
<g transform="translate(288,192) scale(4)"><rect width="6" height="6"/></g>
<g transform="translate(336,192) scale(4)"><rect width="6" height="6"/></g>
<g transform="translate(384,192) scale(4)"><rect width="6" height="6"/></g>
<g transform="translate(432,192) scale(4)"><rect width="6" height="6"/></g>
<g transform="translate(480,192) scale(4)"><rect width="6" height="6"/></g>
<g transform="translate(528,192) scale(4)"><rect width="6" height="6"/></g>
<g transform="translate(576,192) scale(4)"><rect width="6" height="6"/></g>
<g transform="translate(624,192) scale(4)"><rect width="6" height="6"/></g>
<g transform="translate(672,192) scale(4)"><rect width="6" height="6"/></g>
<g transform="translate(720,192) scale(4)"><rect width="6" height="6"/></g>
<g transform="translate(240,216) scale(4)"><rect width="6" height="6"/></g>
<g transform="translate(288,216) scale(4)"><rect width="6" height="6"/></g>
<g transform="translate(336,216) scale(4)"><rect width="6" height="6"/></g>
<g transform="translate(360,216) scale(4)"><rect width="6" height="6"/></g>
<g transform="translate(432,216) scale(4)"><rect width="6" height="6"/></g>
<g transform="translate(528,216) scale(4)"><rect width="6" height="6"/></g>
<g transform="translate(552,216) scale(4)"><rect width="6" height="6"/></g>
<g transform="translate(576,216) scale(4)"><rect width="6" height="6"/></g>
<g transform="translate(672,216) scale(4)"><rect width="6" height="6"/></g>
<g transform="translate(720,216) scale(4)"><rect width="6" height="6"/></g>
<g transform="translate(96,240) scale(4)"><rect width="6" height="6"/></g>
<g transform="translate(120,240) scale(4)"><rect width="6" height="6"/></g>
<g transform="translate(144,240) scale(4)"><rect width="6" height="6"/></g>
<g transform="translate(192,240) scale(4)"><rect width="6" height="6"/></g>
<g transform="translate(240,240) scale(4)"><rect width="6" height="6"/></g>
<g transform="translate(312,240) scale(4)"><rect width="6" height="6"/></g>
<g transform="translate(384,240) scale(4)"><rect width="6" height="6"/></g>
<g transform="translate(504,240) scale(4)"><rect width="6" height="6"/></g>
<g transform="translate(576,240) scale(4)"><rect width="6" height="6"/></g>
<g transform="translate(600,240) scale(4)"><rect width="6" height="6"/></g>
<g transform="translate(744,240) scale(4)"><rect width="6" height="6"/></g>
<g transform="translate(768,240) scale(4)"><rect width="6" height="6"/></g>
<g transform="translate(792,240) scale(4)"><rect width="6" height="6"/></g>
<g transform="translate(864,240) scale(4)"><rect width="6" height="6"/></g>
<g transform="translate(888,240) scale(4)"><rect width="6" height="6"/></g>
<g transform="translate(912,240) scale(4)"><rect width="6" height="6"/></g>
<g transform="translate(96,264) scale(4)"><rect width="6" height="6"/></g>
<g transform="translate(144,264) scale(4)"><rect width="6" height="6"/></g>
<g transform="translate(216,264) scale(4)"><rect width="6" height="6"/></g>
<g transform="translate(240,264) scale(4)"><rect width="6" height="6"/></g>
<g transform="translate(336,264) scale(4)"><rect width="6" height="6"/></g>
<g transform="translate(360,264) scale(4)"><rect width="6" height="6"/></g>
<g transform="translate(384,264) scale(4)"><rect width="6" height="6"/></g>
<g transform="translate(456,264) scale(4)"><rect width="6" height="6"/></g>
<g transform="translate(480,264) scale(4)"><rect width="6" height="6"/></g>
<g transform="translate(504,264) scale(4)"><rect width="6" height="6"/></g>
<g transform="translate(576,264) scale(4)"><rect width="6" height="6"/></g>
<g transform="translate(648,264) scale(4)"><rect width="6" height="6"/></g>
<g transform="translate(672,264) scale(4)"><rect width="6" height="6"/></g>
<g transform="translate(696,264) scale(4)"><rect width="6" height="6"/></g>
<g transform="translate(720,264) scale(4)"><rect width="6" height="6"/></g>
<g transform="translate(744,264) scale(4)"><rect width="6" height="6"/></g>
<g transform="translate(768,264) scale(4)"><rect width="6" height="6"/></g>
<g transform="translate(888,264) scale(4)"><rect width="6" height="6"/></g>
<g transform="translate(120,288) scale(4)"><rect width="6" height="6"/></g>
<g transform="translate(192,288) scale(4)"><rect width="6" height="6"/></g>
<g transform="translate(240,288) scale(4)"><rect width="6" height="6"/></g>
<g transform="translate(264,288) scale(4)"><rect width="6" height="6"/></g>
<g transform="translate(288,288) scale(4)"><rect width="6" height="6"/></g>
<g transform="translate(336,288) scale(4)"><rect width="6" height="6"/></g>
<g transform="translate(360,288) scale(4)"><rect width="6" height="6"/></g>
<g transform="translate(408,288) scale(4)"><rect width="6" height="6"/></g>
<g transform="translate(432,288) scale(4)"><rect width="6" height="6"/></g>
<g transform="translate(480,288) scale(4)"><rect width="6" height="6"/></g>
<g transform="translate(528,288) scale(4)"><rect width="6" height="6"/></g>
<g transform="translate(624,288) scale(4)"><rect width="6" height="6"/></g>
<g transform="translate(648,288) scale(4)"><rect width="6" height="6"/></g>
<g transform="translate(672,288) scale(4)"><rect width="6" height="6"/></g>
<g transform="translate(768,288) scale(4)"><rect width="6" height="6"/></g>
<g transform="translate(792,288) scale(4)"><rect width="6" height="6"/></g>
<g transform="translate(864,288) scale(4)"><rect width="6" height="6"/></g>
<g transform="translate(888,288) scale(4)"><rect width="6" height="6"/></g>
<g transform="translate(912,288) scale(4)"><rect width="6" height="6"/></g>
<g transform="translate(48,312) scale(4)"><rect width="6" height="6"/></g>
<g transform="translate(168,312) scale(4)"><rect width="6" height="6"/></g>
<g transform="translate(240,312) scale(4)"><rect width="6" height="6"/></g>
<g transform="translate(312,312) scale(4)"><rect width="6" height="6"/></g>
<g transform="translate(336,312) scale(4)"><rect width="6" height="6"/></g>
<g transform="translate(360,312) scale(4)"><rect width="6" height="6"/></g>
<g transform="translate(432,312) scale(4)"><rect width="6" height="6"/></g>
<g transform="translate(456,312) scale(4)"><rect width="6" height="6"/></g>
<g transform="translate(504,312) scale(4)"><rect width="6" height="6"/></g>
<g transform="translate(528,312) scale(4)"><rect width="6" height="6"/></g>
<g transform="translate(576,312) scale(4)"><rect width="6" height="6"/></g>
<g transform="translate(600,312) scale(4)"><rect width="6" height="6"/></g>
<g transform="translate(624,312) scale(4)"><rect width="6" height="6"/></g>
<g transform="translate(672,312) scale(4)"><rect width="6" height="6"/></g>
<g transform="translate(720,312) scale(4)"><rect width="6" height="6"/></g>
<g transform="translate(768,312) scale(4)"><rect width="6" height="6"/></g>
<g transform="translate(840,312) scale(4)"><rect width="6" height="6"/></g>
<g transform="translate(888,312) scale(4)"><rect width="6" height="6"/></g>
<g transform="translate(72,336) scale(4)"><rect width="6" height="6"/></g>
<g transform="translate(120,336) scale(4)"><rect width="6" height="6"/></g>
<g transform="translate(168,336) scale(4)"><rect width="6" height="6"/></g>
<g transform="translate(192,336) scale(4)"><rect width="6" height="6"/></g>
<g transform="translate(264,336) scale(4)"><rect width="6" height="6"/></g>
<g transform="translate(312,336) scale(4)"><rect width="6" height="6"/></g>
<g transform="translate(528,336) scale(4)"><rect width="6" height="6"/></g>
<g transform="translate(576,336) scale(4)"><rect width="6" height="6"/></g>
<g transform="translate(648,336) scale(4)"><rect width="6" height="6"/></g>
<g transform="translate(672,336) scale(4)"><rect width="6" height="6"/></g>
<g transform="translate(744,336) scale(4)"><rect width="6" height="6"/></g>
<g transform="translate(768,336) scale(4)"><rect width="6" height="6"/></g>
<g transform="translate(792,336) scale(4)"><rect width="6" height="6"/></g>
<g transform="translate(864,336) scale(4)"><rect width="6" height="6"/></g>
<g transform="translate(888,336) scale(4)"><rect width="6" height="6"/></g>
<g transform="translate(912,336) scale(4)"><rect width="6" height="6"/></g>
<g transform="translate(120,360) scale(4)"><rect width="6" height="6"/></g>
<g transform="translate(168,360) scale(4)"><rect width="6" height="6"/></g>
<g transform="translate(360,360) scale(4)"><rect width="6" height="6"/></g>
<g transform="translate(432,360) scale(4)"><rect width="6" height="6"/></g>
<g transform="translate(480,360) scale(4)"><rect width="6" height="6"/></g>
<g transform="translate(528,360) scale(4)"><rect width="6" height="6"/></g>
<g transform="translate(648,360) scale(4)"><rect width="6" height="6"/></g>
<g transform="translate(720,360) scale(4)"><rect width="6" height="6"/></g>
<g transform="translate(744,360) scale(4)"><rect width="6" height="6"/></g>
<g transform="translate(792,360) scale(4)"><rect width="6" height="6"/></g>
<g transform="translate(840,360) scale(4)"><rect width="6" height="6"/></g>
<g transform="translate(864,360) scale(4)"><rect width="6" height="6"/></g>
<g transform="translate(120,384) scale(4)"><rect width="6" height="6"/></g>
<g transform="translate(144,384) scale(4)"><rect width="6" height="6"/></g>
<g transform="translate(192,384) scale(4)"><rect width="6" height="6"/></g>
<g transform="translate(216,384) scale(4)"><rect width="6" height="6"/></g>
<g transform="translate(264,384) scale(4)"><rect width="6" height="6"/></g>
<g transform="translate(312,384) scale(4)"><rect width="6" height="6"/></g>
<g transform="translate(336,384) scale(4)"><rect width="6" height="6"/></g>
<g transform="translate(360,384) scale(4)"><rect width="6" height="6"/></g>
<g transform="translate(456,384) scale(4)"><rect width="6" height="6"/></g>
<g transform="translate(480,384) scale(4)"><rect width="6" height="6"/></g>
<g transform="translate(504,384) scale(4)"><rect width="6" height="6"/></g>
<g transform="translate(552,384) scale(4)"><rect width="6" height="6"/></g>
<g transform="translate(576,384) scale(4)"><rect width="6" height="6"/></g>
<g transform="translate(600,384) scale(4)"><rect width="6" height="6"/></g>
<g transform="translate(624,384) scale(4)"><rect width="6" height="6"/></g>
<g transform="translate(672,384) scale(4)"><rect width="6" height="6"/></g>
<g transform="translate(696,384) scale(4)"><rect width="6" height="6"/></g>
<g transform="translate(720,384) scale(4)"><rect width="6" height="6"/></g>
<g transform="translate(744,384) scale(4)"><rect width="6" height="6"/></g>
<g transform="translate(768,384) scale(4)"><rect width="6" height="6"/></g>
<g transform="translate(792,384) scale(4)"><rect width="6" height="6"/></g>
<g transform="translate(840,384) scale(4)"><rect width="6" height="6"/></g>
<g transform="translate(888,384) scale(4)"><rect width="6" height="6"/></g>
<g transform="translate(912,384) scale(4)"><rect width="6" height="6"/></g>
<g transform="translate(120,408) scale(4)"><rect width="6" height="6"/></g>
<g transform="translate(144,408) scale(4)"><rect width="6" height="6"/></g>
<g transform="translate(264,408) scale(4)"><rect width="6" height="6"/></g>
<g transform="translate(384,408) scale(4)"><rect width="6" height="6"/></g>
<g transform="translate(432,408) scale(4)"><rect width="6" height="6"/></g>
<g transform="translate(504,408) scale(4)"><rect width="6" height="6"/></g>
<g transform="translate(528,408) scale(4)"><rect width="6" height="6"/></g>
<g transform="translate(552,408) scale(4)"><rect width="6" height="6"/></g>
<g transform="translate(576,408) scale(4)"><rect width="6" height="6"/></g>
<g transform="translate(600,408) scale(4)"><rect width="6" height="6"/></g>
<g transform="translate(672,408) scale(4)"><rect width="6" height="6"/></g>
<g transform="translate(696,408) scale(4)"><rect width="6" height="6"/></g>
<g transform="translate(744,408) scale(4)"><rect width="6" height="6"/></g>
<g transform="translate(816,408) scale(4)"><rect width="6" height="6"/></g>
<g transform="translate(48,432) scale(4)"><rect width="6" height="6"/></g>
<g transform="translate(72,432) scale(4)"><rect width="6" height="6"/></g>
<g transform="translate(144,432) scale(4)"><rect width="6" height="6"/></g>
<g transform="translate(168,432) scale(4)"><rect width="6" height="6"/></g>
<g transform="translate(192,432) scale(4)"><rect width="6" height="6"/></g>
<g transform="translate(240,432) scale(4)"><rect width="6" height="6"/></g>
<g transform="translate(264,432) scale(4)"><rect width="6" height="6"/></g>
<g transform="translate(312,432) scale(4)"><rect width="6" height="6"/></g>
<g transform="translate(360,432) scale(4)"><rect width="6" height="6"/></g>
<g transform="translate(408,432) scale(4)"><rect width="6" height="6"/></g>
<g transform="translate(432,432) scale(4)"><rect width="6" height="6"/></g>
<g transform="translate(480,432) scale(4)"><rect width="6" height="6"/></g>
<g transform="translate(504,432) scale(4)"><rect width="6" height="6"/></g>
<g transform="translate(528,432) scale(4)"><rect width="6" height="6"/></g>
<g transform="translate(576,432) scale(4)"><rect width="6" height="6"/></g>
<g transform="translate(672,432) scale(4)"><rect width="6" height="6"/></g>
<g transform="translate(744,432) scale(4)"><rect width="6" height="6"/></g>
<g transform="translate(768,432) scale(4)"><rect width="6" height="6"/></g>
<g transform="translate(816,432) scale(4)"><rect width="6" height="6"/></g>
<g transform="translate(864,432) scale(4)"><rect width="6" height="6"/></g>
<g transform="translate(912,432) scale(4)"><rect width="6" height="6"/></g>
<g transform="translate(48,456) scale(4)"><rect width="6" height="6"/></g>
<g transform="translate(144,456) scale(4)"><rect width="6" height="6"/></g>
<g transform="translate(168,456) scale(4)"><rect width="6" height="6"/></g>
<g transform="translate(240,456) scale(4)"><rect width="6" height="6"/></g>
<g transform="translate(264,456) scale(4)"><rect width="6" height="6"/></g>
<g transform="translate(288,456) scale(4)"><rect width="6" height="6"/></g>
<g transform="translate(360,456) scale(4)"><rect width="6" height="6"/></g>
<g transform="translate(384,456) scale(4)"><rect width="6" height="6"/></g>
<g transform="translate(600,456) scale(4)"><rect width="6" height="6"/></g>
<g transform="translate(624,456) scale(4)"><rect width="6" height="6"/></g>
<g transform="translate(672,456) scale(4)"><rect width="6" height="6"/></g>
<g transform="translate(792,456) scale(4)"><rect width="6" height="6"/></g>
<g transform="translate(864,456) scale(4)"><rect width="6" height="6"/></g>
<g transform="translate(48,480) scale(4)"><rect width="6" height="6"/></g>
<g transform="translate(72,480) scale(4)"><rect width="6" height="6"/></g>
<g transform="translate(120,480) scale(4)"><rect width="6" height="6"/></g>
<g transform="translate(144,480) scale(4)"><rect width="6" height="6"/></g>
<g transform="translate(192,480) scale(4)"><rect width="6" height="6"/></g>
<g transform="translate(240,480) scale(4)"><rect width="6" height="6"/></g>
<g transform="translate(264,480) scale(4)"><rect width="6" height="6"/></g>
<g transform="translate(336,480) scale(4)"><rect width="6" height="6"/></g>
<g transform="translate(408,480) scale(4)"><rect width="6" height="6"/></g>
<g transform="translate(480,480) scale(4)"><rect width="6" height="6"/></g>
<g transform="translate(528,480) scale(4)"><rect width="6" height="6"/></g>
<g transform="translate(552,480) scale(4)"><rect width="6" height="6"/></g>
<g transform="translate(624,480) scale(4)"><rect width="6" height="6"/></g>
<g transform="translate(648,480) scale(4)"><rect width="6" height="6"/></g>
<g transform="translate(696,480) scale(4)"><rect width="6" height="6"/></g>
<g transform="translate(720,480) scale(4)"><rect width="6" height="6"/></g>
<g transform="translate(744,480) scale(4)"><rect width="6" height="6"/></g>
<g transform="translate(768,480) scale(4)"><rect width="6" height="6"/></g>
<g transform="translate(816,480) scale(4)"><rect width="6" height="6"/></g>
<g transform="translate(888,480) scale(4)"><rect width="6" height="6"/></g>
<g transform="translate(912,480) scale(4)"><rect width="6" height="6"/></g>
<g transform="translate(96,504) scale(4)"><rect width="6" height="6"/></g>
<g transform="translate(120,504) scale(4)"><rect width="6" height="6"/></g>
<g transform="translate(144,504) scale(4)"><rect width="6" height="6"/></g>
<g transform="translate(168,504) scale(4)"><rect width="6" height="6"/></g>
<g transform="translate(240,504) scale(4)"><rect width="6" height="6"/></g>
<g transform="translate(264,504) scale(4)"><rect width="6" height="6"/></g>
<g transform="translate(288,504) scale(4)"><rect width="6" height="6"/></g>
<g transform="translate(336,504) scale(4)"><rect width="6" height="6"/></g>
<g transform="translate(432,504) scale(4)"><rect width="6" height="6"/></g>
<g transform="translate(480,504) scale(4)"><rect width="6" height="6"/></g>
<g transform="translate(504,504) scale(4)"><rect width="6" height="6"/></g>
<g transform="translate(528,504) scale(4)"><rect width="6" height="6"/></g>
<g transform="translate(552,504) scale(4)"><rect width="6" height="6"/></g>
<g transform="translate(672,504) scale(4)"><rect width="6" height="6"/></g>
<g transform="translate(696,504) scale(4)"><rect width="6" height="6"/></g>
<g transform="translate(720,504) scale(4)"><rect width="6" height="6"/></g>
<g transform="translate(768,504) scale(4)"><rect width="6" height="6"/></g>
<g transform="translate(792,504) scale(4)"><rect width="6" height="6"/></g>
<g transform="translate(816,504) scale(4)"><rect width="6" height="6"/></g>
<g transform="translate(888,504) scale(4)"><rect width="6" height="6"/></g>
<g transform="translate(120,528) scale(4)"><rect width="6" height="6"/></g>
<g transform="translate(192,528) scale(4)"><rect width="6" height="6"/></g>
<g transform="translate(216,528) scale(4)"><rect width="6" height="6"/></g>
<g transform="translate(240,528) scale(4)"><rect width="6" height="6"/></g>
<g transform="translate(288,528) scale(4)"><rect width="6" height="6"/></g>
<g transform="translate(312,528) scale(4)"><rect width="6" height="6"/></g>
<g transform="translate(336,528) scale(4)"><rect width="6" height="6"/></g>
<g transform="translate(360,528) scale(4)"><rect width="6" height="6"/></g>
<g transform="translate(432,528) scale(4)"><rect width="6" height="6"/></g>
<g transform="translate(480,528) scale(4)"><rect width="6" height="6"/></g>
<g transform="translate(504,528) scale(4)"><rect width="6" height="6"/></g>
<g transform="translate(576,528) scale(4)"><rect width="6" height="6"/></g>
<g transform="translate(624,528) scale(4)"><rect width="6" height="6"/></g>
<g transform="translate(648,528) scale(4)"><rect width="6" height="6"/></g>
<g transform="translate(672,528) scale(4)"><rect width="6" height="6"/></g>
<g transform="translate(696,528) scale(4)"><rect width="6" height="6"/></g>
<g transform="translate(768,528) scale(4)"><rect width="6" height="6"/></g>
<g transform="translate(792,528) scale(4)"><rect width="6" height="6"/></g>
<g transform="translate(816,528) scale(4)"><rect width="6" height="6"/></g>
<g transform="translate(864,528) scale(4)"><rect width="6" height="6"/></g>
<g transform="translate(912,528) scale(4)"><rect width="6" height="6"/></g>
<g transform="translate(48,552) scale(4)"><rect width="6" height="6"/></g>
<g transform="translate(120,552) scale(4)"><rect width="6" height="6"/></g>
<g transform="translate(144,552) scale(4)"><rect width="6" height="6"/></g>
<g transform="translate(216,552) scale(4)"><rect width="6" height="6"/></g>
<g transform="translate(312,552) scale(4)"><rect width="6" height="6"/></g>
<g transform="translate(408,552) scale(4)"><rect width="6" height="6"/></g>
<g transform="translate(432,552) scale(4)"><rect width="6" height="6"/></g>
<g transform="translate(456,552) scale(4)"><rect width="6" height="6"/></g>
<g transform="translate(528,552) scale(4)"><rect width="6" height="6"/></g>
<g transform="translate(624,552) scale(4)"><rect width="6" height="6"/></g>
<g transform="translate(648,552) scale(4)"><rect width="6" height="6"/></g>
<g transform="translate(744,552) scale(4)"><rect width="6" height="6"/></g>
<g transform="translate(792,552) scale(4)"><rect width="6" height="6"/></g>
<g transform="translate(888,552) scale(4)"><rect width="6" height="6"/></g>
<g transform="translate(48,576) scale(4)"><rect width="6" height="6"/></g>
<g transform="translate(96,576) scale(4)"><rect width="6" height="6"/></g>
<g transform="translate(192,576) scale(4)"><rect width="6" height="6"/></g>
<g transform="translate(288,576) scale(4)"><rect width="6" height="6"/></g>
<g transform="translate(360,576) scale(4)"><rect width="6" height="6"/></g>
<g transform="translate(408,576) scale(4)"><rect width="6" height="6"/></g>
<g transform="translate(432,576) scale(4)"><rect width="6" height="6"/></g>
<g transform="translate(456,576) scale(4)"><rect width="6" height="6"/></g>
<g transform="translate(528,576) scale(4)"><rect width="6" height="6"/></g>
<g transform="translate(600,576) scale(4)"><rect width="6" height="6"/></g>
<g transform="translate(624,576) scale(4)"><rect width="6" height="6"/></g>
<g transform="translate(648,576) scale(4)"><rect width="6" height="6"/></g>
<g transform="translate(672,576) scale(4)"><rect width="6" height="6"/></g>
<g transform="translate(696,576) scale(4)"><rect width="6" height="6"/></g>
<g transform="translate(744,576) scale(4)"><rect width="6" height="6"/></g>
<g transform="translate(840,576) scale(4)"><rect width="6" height="6"/></g>
<g transform="translate(864,576) scale(4)"><rect width="6" height="6"/></g>
<g transform="translate(888,576) scale(4)"><rect width="6" height="6"/></g>
<g transform="translate(912,576) scale(4)"><rect width="6" height="6"/></g>
<g transform="translate(48,600) scale(4)"><rect width="6" height="6"/></g>
<g transform="translate(72,600) scale(4)"><rect width="6" height="6"/></g>
<g transform="translate(96,600) scale(4)"><rect width="6" height="6"/></g>
<g transform="translate(120,600) scale(4)"><rect width="6" height="6"/></g>
<g transform="translate(168,600) scale(4)"><rect width="6" height="6"/></g>
<g transform="translate(264,600) scale(4)"><rect width="6" height="6"/></g>
<g transform="translate(312,600) scale(4)"><rect width="6" height="6"/></g>
<g transform="translate(360,600) scale(4)"><rect width="6" height="6"/></g>
<g transform="translate(384,600) scale(4)"><rect width="6" height="6"/></g>
<g transform="translate(408,600) scale(4)"><rect width="6" height="6"/></g>
<g transform="translate(432,600) scale(4)"><rect width="6" height="6"/></g>
<g transform="translate(528,600) scale(4)"><rect width="6" height="6"/></g>
<g transform="translate(576,600) scale(4)"><rect width="6" height="6"/></g>
<g transform="translate(624,600) scale(4)"><rect width="6" height="6"/></g>
<g transform="translate(648,600) scale(4)"><rect width="6" height="6"/></g>
<g transform="translate(792,600) scale(4)"><rect width="6" height="6"/></g>
<g transform="translate(72,624) scale(4)"><rect width="6" height="6"/></g>
<g transform="translate(144,624) scale(4)"><rect width="6" height="6"/></g>
<g transform="translate(168,624) scale(4)"><rect width="6" height="6"/></g>
<g transform="translate(192,624) scale(4)"><rect width="6" height="6"/></g>
<g transform="translate(288,624) scale(4)"><rect width="6" height="6"/></g>
<g transform="translate(312,624) scale(4)"><rect width="6" height="6"/></g>
<g transform="translate(336,624) scale(4)"><rect width="6" height="6"/></g>
<g transform="translate(408,624) scale(4)"><rect width="6" height="6"/></g>
<g transform="translate(432,624) scale(4)"><rect width="6" height="6"/></g>
<g transform="translate(528,624) scale(4)"><rect width="6" height="6"/></g>
<g transform="translate(552,624) scale(4)"><rect width="6" height="6"/></g>
<g transform="translate(576,624) scale(4)"><rect width="6" height="6"/></g>
<g transform="translate(600,624) scale(4)"><rect width="6" height="6"/></g>
<g transform="translate(624,624) scale(4)"><rect width="6" height="6"/></g>
<g transform="translate(672,624) scale(4)"><rect width="6" height="6"/></g>
<g transform="translate(720,624) scale(4)"><rect width="6" height="6"/></g>
<g transform="translate(744,624) scale(4)"><rect width="6" height="6"/></g>
<g transform="translate(840,624) scale(4)"><rect width="6" height="6"/></g>
<g transform="translate(864,624) scale(4)"><rect width="6" height="6"/></g>
<g transform="translate(48,648) scale(4)"><rect width="6" height="6"/></g>
<g transform="translate(216,648) scale(4)"><rect width="6" height="6"/></g>
<g transform="translate(264,648) scale(4)"><rect width="6" height="6"/></g>
<g transform="translate(336,648) scale(4)"><rect width="6" height="6"/></g>
<g transform="translate(360,648) scale(4)"><rect width="6" height="6"/></g>
<g transform="translate(408,648) scale(4)"><rect width="6" height="6"/></g>
<g transform="translate(480,648) scale(4)"><rect width="6" height="6"/></g>
<g transform="translate(552,648) scale(4)"><rect width="6" height="6"/></g>
<g transform="translate(576,648) scale(4)"><rect width="6" height="6"/></g>
<g transform="translate(696,648) scale(4)"><rect width="6" height="6"/></g>
<g transform="translate(768,648) scale(4)"><rect width="6" height="6"/></g>
<g transform="translate(792,648) scale(4)"><rect width="6" height="6"/></g>
<g transform="translate(816,648) scale(4)"><rect width="6" height="6"/></g>
<g transform="translate(888,648) scale(4)"><rect width="6" height="6"/></g>
<g transform="translate(48,672) scale(4)"><rect width="6" height="6"/></g>
<g transform="translate(96,672) scale(4)"><rect width="6" height="6"/></g>
<g transform="translate(144,672) scale(4)"><rect width="6" height="6"/></g>
<g transform="translate(168,672) scale(4)"><rect width="6" height="6"/></g>
<g transform="translate(192,672) scale(4)"><rect width="6" height="6"/></g>
<g transform="translate(216,672) scale(4)"><rect width="6" height="6"/></g>
<g transform="translate(240,672) scale(4)"><rect width="6" height="6"/></g>
<g transform="translate(264,672) scale(4)"><rect width="6" height="6"/></g>
<g transform="translate(408,672) scale(4)"><rect width="6" height="6"/></g>
<g transform="translate(504,672) scale(4)"><rect width="6" height="6"/></g>
<g transform="translate(528,672) scale(4)"><rect width="6" height="6"/></g>
<g transform="translate(600,672) scale(4)"><rect width="6" height="6"/></g>
<g transform="translate(624,672) scale(4)"><rect width="6" height="6"/></g>
<g transform="translate(648,672) scale(4)"><rect width="6" height="6"/></g>
<g transform="translate(672,672) scale(4)"><rect width="6" height="6"/></g>
<g transform="translate(696,672) scale(4)"><rect width="6" height="6"/></g>
<g transform="translate(720,672) scale(4)"><rect width="6" height="6"/></g>
<g transform="translate(768,672) scale(4)"><rect width="6" height="6"/></g>
<g transform="translate(816,672) scale(4)"><rect width="6" height="6"/></g>
<g transform="translate(888,672) scale(4)"><rect width="6" height="6"/></g>
<g transform="translate(912,672) scale(4)"><rect width="6" height="6"/></g>
<g transform="translate(48,696) scale(4)"><rect width="6" height="6"/></g>
<g transform="translate(96,696) scale(4)"><rect width="6" height="6"/></g>
<g transform="translate(360,696) scale(4)"><rect width="6" height="6"/></g>
<g transform="translate(384,696) scale(4)"><rect width="6" height="6"/></g>
<g transform="translate(408,696) scale(4)"><rect width="6" height="6"/></g>
<g transform="translate(432,696) scale(4)"><rect width="6" height="6"/></g>
<g transform="translate(600,696) scale(4)"><rect width="6" height="6"/></g>
<g transform="translate(696,696) scale(4)"><rect width="6" height="6"/></g>
<g transform="translate(744,696) scale(4)"><rect width="6" height="6"/></g>
<g transform="translate(792,696) scale(4)"><rect width="6" height="6"/></g>
<g transform="translate(816,696) scale(4)"><rect width="6" height="6"/></g>
<g transform="translate(840,696) scale(4)"><rect width="6" height="6"/></g>
<g transform="translate(48,720) scale(4)"><rect width="6" height="6"/></g>
<g transform="translate(96,720) scale(4)"><rect width="6" height="6"/></g>
<g transform="translate(144,720) scale(4)"><rect width="6" height="6"/></g>
<g transform="translate(168,720) scale(4)"><rect width="6" height="6"/></g>
<g transform="translate(192,720) scale(4)"><rect width="6" height="6"/></g>
<g transform="translate(216,720) scale(4)"><rect width="6" height="6"/></g>
<g transform="translate(288,720) scale(4)"><rect width="6" height="6"/></g>
<g transform="translate(312,720) scale(4)"><rect width="6" height="6"/></g>
<g transform="translate(360,720) scale(4)"><rect width="6" height="6"/></g>
<g transform="translate(504,720) scale(4)"><rect width="6" height="6"/></g>
<g transform="translate(528,720) scale(4)"><rect width="6" height="6"/></g>
<g transform="translate(576,720) scale(4)"><rect width="6" height="6"/></g>
<g transform="translate(600,720) scale(4)"><rect width="6" height="6"/></g>
<g transform="translate(648,720) scale(4)"><rect width="6" height="6"/></g>
<g transform="translate(672,720) scale(4)"><rect width="6" height="6"/></g>
<g transform="translate(696,720) scale(4)"><rect width="6" height="6"/></g>
<g transform="translate(720,720) scale(4)"><rect width="6" height="6"/></g>
<g transform="translate(744,720) scale(4)"><rect width="6" height="6"/></g>
<g transform="translate(768,720) scale(4)"><rect width="6" height="6"/></g>
<g transform="translate(792,720) scale(4)"><rect width="6" height="6"/></g>
<g transform="translate(816,720) scale(4)"><rect width="6" height="6"/></g>
<g transform="translate(840,720) scale(4)"><rect width="6" height="6"/></g>
<g transform="translate(888,720) scale(4)"><rect width="6" height="6"/></g>
<g transform="translate(240,744) scale(4)"><rect width="6" height="6"/></g>
<g transform="translate(288,744) scale(4)"><rect width="6" height="6"/></g>
<g transform="translate(336,744) scale(4)"><rect width="6" height="6"/></g>
<g transform="translate(480,744) scale(4)"><rect width="6" height="6"/></g>
<g transform="translate(504,744) scale(4)"><rect width="6" height="6"/></g>
<g transform="translate(552,744) scale(4)"><rect width="6" height="6"/></g>
<g transform="translate(576,744) scale(4)"><rect width="6" height="6"/></g>
<g transform="translate(600,744) scale(4)"><rect width="6" height="6"/></g>
<g transform="translate(720,744) scale(4)"><rect width="6" height="6"/></g>
<g transform="translate(816,744) scale(4)"><rect width="6" height="6"/></g>
<g transform="translate(888,744) scale(4)"><rect width="6" height="6"/></g>
<g transform="translate(288,768) scale(4)"><rect width="6" height="6"/></g>
<g transform="translate(312,768) scale(4)"><rect width="6" height="6"/></g>
<g transform="translate(336,768) scale(4)"><rect width="6" height="6"/></g>
<g transform="translate(384,768) scale(4)"><rect width="6" height="6"/></g>
<g transform="translate(576,768) scale(4)"><rect width="6" height="6"/></g>
<g transform="translate(624,768) scale(4)"><rect width="6" height="6"/></g>
<g transform="translate(648,768) scale(4)"><rect width="6" height="6"/></g>
<g transform="translate(696,768) scale(4)"><rect width="6" height="6"/></g>
<g transform="translate(720,768) scale(4)"><rect width="6" height="6"/></g>
<g transform="translate(768,768) scale(4)"><rect width="6" height="6"/></g>
<g transform="translate(816,768) scale(4)"><rect width="6" height="6"/></g>
<g transform="translate(840,768) scale(4)"><rect width="6" height="6"/></g>
<g transform="translate(888,768) scale(4)"><rect width="6" height="6"/></g>
<g transform="translate(912,768) scale(4)"><rect width="6" height="6"/></g>
<g transform="translate(264,792) scale(4)"><rect width="6" height="6"/></g>
<g transform="translate(336,792) scale(4)"><rect width="6" height="6"/></g>
<g transform="translate(360,792) scale(4)"><rect width="6" height="6"/></g>
<g transform="translate(384,792) scale(4)"><rect width="6" height="6"/></g>
<g transform="translate(456,792) scale(4)"><rect width="6" height="6"/></g>
<g transform="translate(480,792) scale(4)"><rect width="6" height="6"/></g>
<g transform="translate(528,792) scale(4)"><rect width="6" height="6"/></g>
<g transform="translate(576,792) scale(4)"><rect width="6" height="6"/></g>
<g transform="translate(600,792) scale(4)"><rect width="6" height="6"/></g>
<g transform="translate(672,792) scale(4)"><rect width="6" height="6"/></g>
<g transform="translate(720,792) scale(4)"><rect width="6" height="6"/></g>
<g transform="translate(816,792) scale(4)"><rect width="6" height="6"/></g>
<g transform="translate(888,792) scale(4)"><rect width="6" height="6"/></g>
<g transform="translate(240,816) scale(4)"><rect width="6" height="6"/></g>
<g transform="translate(288,816) scale(4)"><rect width="6" height="6"/></g>
<g transform="translate(360,816) scale(4)"><rect width="6" height="6"/></g>
<g transform="translate(384,816) scale(4)"><rect width="6" height="6"/></g>
<g transform="translate(432,816) scale(4)"><rect width="6" height="6"/></g>
<g transform="translate(456,816) scale(4)"><rect width="6" height="6"/></g>
<g transform="translate(504,816) scale(4)"><rect width="6" height="6"/></g>
<g transform="translate(528,816) scale(4)"><rect width="6" height="6"/></g>
<g transform="translate(600,816) scale(4)"><rect width="6" height="6"/></g>
<g transform="translate(648,816) scale(4)"><rect width="6" height="6"/></g>
<g transform="translate(672,816) scale(4)"><rect width="6" height="6"/></g>
<g transform="translate(696,816) scale(4)"><rect width="6" height="6"/></g>
<g transform="translate(720,816) scale(4)"><rect width="6" height="6"/></g>
<g transform="translate(744,816) scale(4)"><rect width="6" height="6"/></g>
<g transform="translate(768,816) scale(4)"><rect width="6" height="6"/></g>
<g transform="translate(792,816) scale(4)"><rect width="6" height="6"/></g>
<g transform="translate(816,816) scale(4)"><rect width="6" height="6"/></g>
<g transform="translate(864,816) scale(4)"><rect width="6" height="6"/></g>
<g transform="translate(888,816) scale(4)"><rect width="6" height="6"/></g>
<g transform="translate(240,840) scale(4)"><rect width="6" height="6"/></g>
<g transform="translate(264,840) scale(4)"><rect width="6" height="6"/></g>
<g transform="translate(360,840) scale(4)"><rect width="6" height="6"/></g>
<g transform="translate(408,840) scale(4)"><rect width="6" height="6"/></g>
<g transform="translate(456,840) scale(4)"><rect width="6" height="6"/></g>
<g transform="translate(480,840) scale(4)"><rect width="6" height="6"/></g>
<g transform="translate(528,840) scale(4)"><rect width="6" height="6"/></g>
<g transform="translate(624,840) scale(4)"><rect width="6" height="6"/></g>
<g transform="translate(648,840) scale(4)"><rect width="6" height="6"/></g>
<g transform="translate(696,840) scale(4)"><rect width="6" height="6"/></g>
<g transform="translate(720,840) scale(4)"><rect width="6" height="6"/></g>
<g transform="translate(768,840) scale(4)"><rect width="6" height="6"/></g>
<g transform="translate(792,840) scale(4)"><rect width="6" height="6"/></g>
<g transform="translate(816,840) scale(4)"><rect width="6" height="6"/></g>
<g transform="translate(840,840) scale(4)"><rect width="6" height="6"/></g>
<g transform="translate(240,864) scale(4)"><rect width="6" height="6"/></g>
<g transform="translate(432,864) scale(4)"><rect width="6" height="6"/></g>
<g transform="translate(456,864) scale(4)"><rect width="6" height="6"/></g>
<g transform="translate(504,864) scale(4)"><rect width="6" height="6"/></g>
<g transform="translate(696,864) scale(4)"><rect width="6" height="6"/></g>
<g transform="translate(744,864) scale(4)"><rect width="6" height="6"/></g>
<g transform="translate(792,864) scale(4)"><rect width="6" height="6"/></g>
<g transform="translate(864,864) scale(4)"><rect width="6" height="6"/></g>
<g transform="translate(912,864) scale(4)"><rect width="6" height="6"/></g>
<g transform="translate(264,888) scale(4)"><rect width="6" height="6"/></g>
<g transform="translate(288,888) scale(4)"><rect width="6" height="6"/></g>
<g transform="translate(336,888) scale(4)"><rect width="6" height="6"/></g>
<g transform="translate(384,888) scale(4)"><rect width="6" height="6"/></g>
<g transform="translate(432,888) scale(4)"><rect width="6" height="6"/></g>
<g transform="translate(624,888) scale(4)"><rect width="6" height="6"/></g>
<g transform="translate(672,888) scale(4)"><rect width="6" height="6"/></g>
<g transform="translate(696,888) scale(4)"><rect width="6" height="6"/></g>
<g transform="translate(720,888) scale(4)"><rect width="6" height="6"/></g>
<g transform="translate(744,888) scale(4)"><rect width="6" height="6"/></g>
<g transform="translate(792,888) scale(4)"><rect width="6" height="6"/></g>
<g transform="translate(840,888) scale(4)"><rect width="6" height="6"/></g>
<g transform="translate(912,888) scale(4)"><rect width="6" height="6"/></g>
<g transform="translate(312,912) scale(4)"><rect width="6" height="6"/></g>
<g transform="translate(480,912) scale(4)"><rect width="6" height="6"/></g>
<g transform="translate(504,912) scale(4)"><rect width="6" height="6"/></g>
<g transform="translate(528,912) scale(4)"><rect width="6" height="6"/></g>
<g transform="translate(552,912) scale(4)"><rect width="6" height="6"/></g>
<g transform="translate(624,912) scale(4)"><rect width="6" height="6"/></g>
<g transform="translate(648,912) scale(4)"><rect width="6" height="6"/></g>
<g transform="translate(672,912) scale(4)"><rect width="6" height="6"/></g>
<g transform="translate(768,912) scale(4)"><rect width="6" height="6"/></g>
<g transform="translate(816,912) scale(4)"><rect width="6" height="6"/></g>
<g transform="translate(840,912) scale(4)"><rect width="6" height="6"/></g>
<g transform="translate(864,912) scale(4)"><rect width="6" height="6"/></g>
<g transform="translate(888,912) scale(4)"><rect width="6" height="6"/></g>
<g transform="translate(912,912) scale(4)"><rect width="6" height="6"/></g>
</g></mask></defs>
<rect width="984" height="984" fill="#ffffff" x="0" y="0" />
<rect x="0" y="0" width="984" height="984" mask="url(#qrmask)" fill="#000000" />
<g transform="translate(48,48)"  fill="#000000"><g transform="scale(12)"><path d="M0,0l0,14h14V0H0z M7,12L7,12c-2.8,0-5-2.2-5-5v0c0-2.8,2.2-5,5-5h0c2.8,0,5,2.2,5,5v0C12,9.8,9.8,12,7,12z"/></g></g>
<g transform="translate(768,48)"  fill="#000000"><g transform="scale(12)"><path d="M0,0l0,14h14V0H0z M7,12L7,12c-2.8,0-5-2.2-5-5v0c0-2.8,2.2-5,5-5h0c2.8,0,5,2.2,5,5v0C12,9.8,9.8,12,7,12z"/></g></g>
<g transform="translate(48,768)"  fill="#000000"><g transform="scale(12)"><path d="M0,0l0,14h14V0H0z M7,12L7,12c-2.8,0-5-2.2-5-5v0c0-2.8,2.2-5,5-5h0c2.8,0,5,2.2,5,5v0C12,9.8,9.8,12,7,12z"/></g></g>
<g transform="translate(96,96)"  fill="#000000"><g transform="scale(12)"><polygon points="3,5.1 3.9,6 6,6 6,3.9 5.1,3 6,2.1 6,0 3.9,0 3,0.9 2.1,0 0,0 0,2.1 0.9,3 0,3.9 0,6 2.1,6"/></g></g>
<g transform="translate(816,96)"  fill="#000000"><g transform="scale(12)"><polygon points="3,5.1 3.9,6 6,6 6,3.9 5.1,3 6,2.1 6,0 3.9,0 3,0.9 2.1,0 0,0 0,2.1 0.9,3 0,3.9 0,6 2.1,6"/></g></g>
<g transform="translate(96,816)"  fill="#000000"><g transform="scale(12)"><polygon points="3,5.1 3.9,6 6,6 6,3.9 5.1,3 6,2.1 6,0 3.9,0 3,0.9 2.1,0 0,0 0,2.1 0.9,3 0,3.9 0,6 2.1,6"/></g></g>
</svg>